# xmcd
#
# Track frame offsets:
#  150
#  13183
#  23909
#  35004
#  44766
#  57750
#  68296
#  79984
#  91205
#  101672
#
# Disc length: 1518 seconds
#
# Revision: 0
# Processed by: cddbd v1.5.1PL2 Copyright (c) Steve Scherf et al.
# Submitted via: Collectorz.com_Music_Collector 6.11
#
DISCID=7c05ec0a
DTITLE=Faron Young - Four In The Morning
DYEAR=1900
DGENRE=Country
TTITLE0=Four In The Morning
TTITLE1=Memphis
TTITLE2=Live Fast, Love Hard and Die Young
TTITLE3=Alone With You
TTITLE4=Apartment #9
TTITLE5=Face To The Wall
TTITLE6=Unmitigated Gall
TTITLE7=Goin' Steady
TTITLE8=I Could Never Be Ashamed Of You
TTITLE9=Country Girl
EXTD=
EXTT0=
EXTT1=
EXTT2=
EXTT3=
EXTT4=
EXTT5=
EXTT6=
EXTT7=
EXTT8=
EXTT9=
PLAYORDER=
